<svg width="100" height="100" viewBox="0 0 100 100" fill="none" xmlns="http://www.w3.org/2000/svg">
<rect width="100" height="100" rx="16" fill="#003D67"/>
<path d="M8.02312 57.1621H15.8424C16.0119 58.6878 16.6476 60.0652 17.7495 61.2942C18.8938 62.4809 20.3771 63.4133 22.1995 64.0914C24.0643 64.7695 26.1833 65.1085 28.5567 65.1085C30.6757 65.1085 32.4133 64.8754 33.7695 64.4092C35.1681 63.9007 36.1852 63.2226 36.8209 62.3749C37.499 61.485 37.8381 60.4254 37.8381 59.1964C37.8381 58.0097 37.4355 57.0985 36.6302 56.4628C35.825 55.7847 34.5536 55.2338 32.8159 54.81C31.1207 54.3438 28.9169 53.8988 26.2045 53.475C24.0007 53.0935 21.8817 52.585 19.8474 51.9492C17.8555 51.3135 16.0755 50.5083 14.5074 49.5335C12.9393 48.5588 11.6891 47.3721 10.7567 45.9735C9.86669 44.575 9.42169 42.9009 9.42169 40.9514C9.42169 38.6205 10.0786 36.565 11.3924 34.785C12.7062 32.9626 14.6557 31.5429 17.241 30.5257C19.8262 29.5086 22.9836 29 26.7131 29C32.3497 29 36.6726 30.2502 39.6816 32.7507C42.6907 35.2512 44.1528 38.6628 44.0681 42.9857H36.5031C36.3759 40.4005 35.38 38.5357 33.5152 37.3914C31.6505 36.2471 29.2771 35.675 26.3952 35.675C23.81 35.675 21.6486 36.0988 19.911 36.9464C18.1733 37.794 17.3045 39.1926 17.3045 41.1421C17.3045 41.9474 17.4952 42.6466 17.8767 43.24C18.3005 43.8333 18.9998 44.3631 19.9745 44.8293C20.9917 45.2955 22.3267 45.7404 23.9795 46.1643C25.6748 46.5881 27.7726 47.0119 30.2731 47.4357C32.4769 47.7747 34.5112 48.2409 36.3759 48.8343C38.2407 49.3852 39.8512 50.1269 41.2074 51.0593C42.6059 51.9492 43.6866 53.0935 44.4495 54.4921C45.2123 55.8907 45.5938 57.6071 45.5938 59.6414C45.5938 62.0571 44.9792 64.1761 43.7502 65.9985C42.5212 67.8209 40.614 69.2407 38.0288 70.2578C35.4859 71.2749 32.1802 71.7835 28.1117 71.7835C25.1026 71.7835 22.475 71.4445 20.2288 70.7664C17.9826 70.0883 16.0543 69.1983 14.4438 68.0964C12.8333 66.9945 11.5407 65.7866 10.566 64.4728C9.59121 63.159 8.89193 61.8664 8.46812 60.595C8.08669 59.2811 7.93836 58.1369 8.02312 57.1621Z" fill="white"/>
<path d="M52.0136 70.9571V29.7629H74.2636C79.5612 29.7629 83.5874 30.6952 86.3422 32.56C89.0969 34.4248 90.4743 37.1795 90.4743 40.8243C90.4743 43.1128 89.9233 44.9352 88.8214 46.2914C87.7619 47.6052 86.2362 48.58 84.2443 49.2157C82.2524 49.8514 79.9003 50.2752 77.1879 50.4871L77.3786 50.0421C79.3705 50.0845 81.2353 50.254 82.9729 50.5507C84.7529 50.805 86.2998 51.2712 87.6136 51.9492C88.9698 52.6273 90.0293 53.5597 90.7921 54.7464C91.5974 55.9331 92 57.5011 92 59.4507C92 61.9935 91.3431 64.1126 90.0293 65.8078C88.7155 67.4607 86.8931 68.7109 84.5622 69.5585C82.2312 70.4061 79.54 70.8723 76.4886 70.9571H52.0136ZM59.7693 64.4092H75.535C78.2474 64.4092 80.3241 63.9642 81.765 63.0742C83.2484 62.1419 83.99 60.6797 83.99 58.6878C83.99 57.2045 83.545 56.1238 82.655 55.4457C81.8074 54.7252 80.6631 54.2802 79.2222 54.1107C77.7812 53.9412 76.2343 53.8564 74.5815 53.8564H59.7693V64.4092ZM59.7693 47.4357H73.8822C76.5946 47.4357 78.6924 46.9907 80.1757 46.1007C81.6591 45.2107 82.4007 43.7909 82.4007 41.8414C82.4007 39.8495 81.6591 38.4509 80.1757 37.6457C78.6924 36.7981 76.7641 36.3743 74.3907 36.3743H59.7693V47.4357Z" fill="white"/>
</svg>
